<?xml version="1.0" encoding="utf-8"?>
<!-- Generator: Adobe Illustrator 14.0.0, SVG Export Plug-In . SVG Version: 6.00 Build 43363)  -->
<!DOCTYPE svg PUBLIC "-//W3C//DTD SVG 1.1//EN" "http://www.w3.org/Graphics/SVG/1.1/DTD/svg11.dtd">
<svg version="1.1" id="Слой_1" xmlns="http://www.w3.org/2000/svg" xmlns:xlink="http://www.w3.org/1999/xlink" x="0px" y="0px"
	 width="871px" height="308px" viewBox="0 0 871 308" enable-background="new 0 0 871 308" xml:space="preserve">
<g>
	<path fill="#C8C8C8" d="M150.106,67.651l-0.299-1.513l-5.9,1.176c-1.894-8.599-6.881-15.936-14.106-20.977l3.297-4.912
		l-1.284-0.854l-3.298,4.913c-7.44-4.721-16.228-6.396-24.861-4.961l-1.148-5.784l-1.521,0.301l1.168,5.874
		C93.52,42.811,86.15,47.794,81.077,55l-4.924-3.276L75.294,53l4.923,3.274c-4.75,7.426-6.448,16.181-5.019,24.774L69.39,82.21
		l0.3,1.513l5.899-1.177c1.893,8.598,6.881,15.936,14.107,20.977l-3.298,4.912l1.284,0.854l3.298-4.911
		c7.439,4.722,16.244,6.488,24.86,4.962l1.149,5.783l1.52-0.297l-1.167-5.875c8.633-1.901,16.005-6.881,21.077-14.087l4.924,3.273
		l0.859-1.278l-4.925-3.276c4.75-7.42,6.449-16.177,5.018-24.773L150.106,67.651L150.106,67.651z M77.128,82.336l19.994-0.365
		l-4.431,16.98l0.714,0.317l0.571,0.532l14.064-10.565l7.306,18.535c-8.525,1.509-17.061-0.313-24.236-5.092
		C83.938,97.914,78.968,90.666,77.128,82.336z M142.372,67.523l-19.993,0.365l4.428-16.979l-0.713-0.321l-0.57-0.534L111.459,60.62
		l-7.306-18.537c8.526-1.509,17.063,0.313,24.234,5.085C135.561,51.943,140.53,59.192,142.372,67.523z M114.053,67.135l-2.027-5.055
		l10.845-8.075L114.053,67.135z M105.447,82.723l2.025,5.057l-10.843,8.075L105.447,82.723z M112.013,86.324L112.013,86.324
		l-0.337-1.696l0,0l-1.715-8.634l0,0l5.139,3.419l0.414,24.526l0,0L112.013,86.324z M122.645,77.179l8.088,10.792l-13.167-8.767
		L122.645,77.179z M121.188,72.656l-6.523,1.299l4.111-0.816l-7.863,1.567l3.439-5.135l24.532-0.434L121.188,72.656L121.188,72.656z
		 M103.985,45.912l3.501,17.625l0,0l0.336,1.693l0,0l1.716,8.638l0,0l0,0l-5.139-3.424L103.985,45.912L103.985,45.912z
		 M96.854,72.678l-8.089-10.789l13.168,8.764L96.854,72.678z M98.311,77.202l6.522-1.3l-4.021,0.803l7.863-1.569l0,0l-3.439,5.132
		l-24.62,0.449l0,0L98.311,77.202L98.311,77.202z M116.801,87.499l17.035,4.388l0.321-0.715l0.536-0.568l-10.582-13.998l18.614-7.3
		c1.5,8.492-0.34,17-5.141,24.152c-4.802,7.15-12.086,12.116-20.449,13.963L116.801,87.499z M102.365,42.439l0.334,19.918
		L85.665,57.97l-0.324,0.716l-0.537,0.57l10.584,13.997l-18.616,7.302c-1.5-8.492,0.34-17,5.143-24.154
		C86.72,49.249,94,44.287,102.365,42.439z"/>
	
		<text transform="matrix(0.9808 -0.1948 0.1948 0.9808 115.3965 130.4373)" fill="#C5C5C5" font-family="'Rubik-Medium'" font-size="14.9147">S</text>
	
		<text transform="matrix(0.9808 -0.1948 0.1948 0.9808 96.9878 32.655)" fill="#C6C5C5" font-family="'Rubik-Medium'" font-size="14.9147">N</text>
	
		<text transform="matrix(0.9808 -0.1948 0.1948 0.9808 54.8496 89.9602)" fill="#C6C5C5" font-family="'Rubik-Medium'" font-size="14.9147">W</text>
	
		<text transform="matrix(0.9808 -0.1948 0.1948 0.9808 154.1064 71.26)" fill="#C6C5C5" font-family="'Rubik-Medium'" font-size="14.9147">E</text>
</g>
<g>
	
		<text transform="matrix(2.729490e-004 -1 1 2.729490e-004 33.7246 280.9319)" fill="#C8C8C8" font-family="'Rubik-Regular'" font-size="14">Ходынский</text>
	
		<text transform="matrix(2.729490e-004 -1 1 2.729490e-004 45.7275 271.2063)" fill="#C8C8C8" font-family="'Rubik-Regular'" font-size="14">бульвар</text>
</g>
<g>
	
		<text transform="matrix(0.982 -0.1888 0.1888 0.982 26.9365 185.5022)" fill="#C8C8C8" font-family="'Rubik-Regular'" font-size="14.0042">ул. Авиаконструктора Микояна</text>
</g>
<polygon fill="#E3E4E4" points="167.759,168.356 98.218,180.67 100.113,191.406 101.376,198.563 170.917,186.25 169.34,177.303 "/>
<polygon fill="#B3B4B5" points="215.05,160.049 167.759,168.356 169.337,177.303 170.917,186.25 196.877,181.708 196.875,198.099 
	204.143,198.1 215.045,198.101 "/>
<polygon fill="#E3E4E4" points="196.875,198.099 196.87,256.039 205.956,256.04 215.041,256.041 215.045,198.1 204.143,198.1 "/>
<path fill="#B3B4B5" d="M196.87,256.039l-0.002,19.071l-16.965,0.01l0.005,12.107l0.002,6.063l35.126-0.015l0.004-37.234
	l-9.085-0.001L196.87,256.039z M179.91,293.29L179.91,293.29"/>
<path fill="#E3E4E4" d="M179.903,275.12l-65.84,0.021l0.003,10.902l0.003,7.268l65.84-0.021l-0.002-6.063L179.903,275.12z
	 M179.91,293.29L179.91,293.29"/>
<polygon fill="#B3B4B5" points="89.583,259.198 81.013,260.708 71.688,262.355 77.152,293.327 114.068,293.312 114.067,286.045 
	114.063,275.143 92.397,275.152 89.583,259.197 "/>
<polygon fill="#E3E4E4" points="82.688,220.115 64.795,223.272 71.688,262.355 81.014,260.708 89.582,259.197 "/>
<polygon fill="#B3B4B5" points="58.514,187.673 64.795,223.272 82.688,220.115 79.565,202.409 101.375,198.563 100.113,191.406 
	98.219,180.67 "/>
<rect x="205.873" y="223.294" fill="#941936" width="9.172" height="5.063"/>
<polyline fill="none" stroke="#1A171B" stroke-width="0.5" stroke-linecap="round" stroke-linejoin="round" stroke-miterlimit="10" points="
	706.888,215.593 712.932,215.536 714.441,215.521 714.933,215.436 "/>
<path fill="none" stroke="#1A171B" stroke-width="0.5" stroke-linecap="round" stroke-linejoin="round" stroke-miterlimit="10" d="
	M429.092,162.169l0.105,72.12l3.556,0.13l-0.021-75.92 M432.221,234.26l-0.135-75.142"/>
<path fill="none" stroke="#1A171B" stroke-width="0.5" stroke-linecap="round" stroke-linejoin="round" stroke-miterlimit="10" d="
	M432.733,158.499l-12.863-0.002 M415.74,162.252l13.352-0.083 M432.086,159.118l-12.863-0.004 M412.806,158.482l0.128,0.737
	 M419.223,159.117l-0.086-0.49"/>
<path fill="none" stroke="#1A171B" stroke-width="0.5" stroke-linecap="round" stroke-linejoin="round" stroke-miterlimit="10" d="
	M482.68,158.52l1.268,0.031 M482.68,158.52l-0.014,2.778l1.266,0.029 M455.973,158.691l-1.022-0.072 M455.973,158.691l0.188,2.487
	l-1.271-0.026 M482.666,161.298l-0.12,26.504 M482.546,187.802l-5.15-0.601l-5.035-1.385l-4.478-2.488l-4.115-3.312l-3.222-3.973
	l-2.574-4.592l-1.396-5.05l-0.413-5.226 M482.666,161.298l3.265-0.073 M455.973,158.691l-23.239-0.19l-0.017,2.777l23.444-0.1
	 M488.723,158.466l-6.043,0.054 M454.893,161.152l1.271,0.026l-0.188-2.487 M455.973,158.691l-1.022-0.072 M483.932,161.327
	l-1.266-0.029l0.014-2.778 M482.68,158.52l1.268,0.031"/>
<path fill="none" stroke="#1A171B" stroke-width="0.5" stroke-linecap="round" stroke-linejoin="round" stroke-miterlimit="10" d="
	M485.931,161.226l0.074,73.387l2.534,0.06 M488.541,234.671l0.182-76.205"/>
<line fill="none" stroke="#1A171B" stroke-width="0.5" stroke-linecap="round" stroke-linejoin="round" stroke-miterlimit="10" x1="412.244" y1="155.303" x2="412.216" y2="156.568"/>
<line fill="none" stroke="#1A171B" stroke-width="0.5" stroke-linecap="round" stroke-linejoin="round" stroke-miterlimit="10" x1="419.798" y1="155.232" x2="419.769" y2="156.498"/>
<polyline fill="none" stroke="#1A171B" stroke-width="0.5" stroke-linecap="round" stroke-linejoin="round" stroke-miterlimit="10" points="
	419.798,155.232 419.309,155.319 414.488,155.159 412.978,155.173 412.244,155.303 "/>
<line fill="none" stroke="#1A171B" stroke-width="0.5" stroke-linecap="round" stroke-linejoin="round" stroke-miterlimit="10" x1="412.178" y1="122.021" x2="412.207" y2="120.754"/>
<line fill="none" stroke="#1A171B" stroke-width="0.5" stroke-linecap="round" stroke-linejoin="round" stroke-miterlimit="10" x1="419.73" y1="121.95" x2="419.802" y2="120.927"/>
<polyline fill="none" stroke="#1A171B" stroke-width="0.5" stroke-linecap="round" stroke-linejoin="round" stroke-miterlimit="10" points="
	419.73,121.95 419.242,122.036 414.464,122.122 412.954,122.136 412.178,122.021 "/>
<line fill="none" stroke="#1A171B" stroke-width="0.5" stroke-linecap="round" stroke-linejoin="round" stroke-miterlimit="10" x1="419.798" y1="155.232" x2="453.08" y2="155.164"/>
<polyline fill="none" stroke="#1A171B" stroke-width="0.5" stroke-linecap="round" stroke-linejoin="round" stroke-miterlimit="10" points="
	453.08,155.164 452.578,149.453 451.096,143.911 448.637,138.543 445.284,133.838 441.287,129.75 436.437,126.57 431.184,123.966 
	425.615,122.424 419.73,121.95 "/>
<line fill="none" stroke="#1A171B" stroke-width="0.5" stroke-linecap="round" stroke-linejoin="round" stroke-miterlimit="10" x1="419.73" y1="121.95" x2="419.732" y2="117.661"/>
<line fill="none" stroke="#1A171B" stroke-width="0.5" stroke-linecap="round" stroke-linejoin="round" stroke-miterlimit="10" x1="419.871" y1="158.497" x2="419.798" y2="155.232"/>
<line fill="none" stroke="#1A171B" stroke-width="0.5" stroke-linecap="round" stroke-linejoin="round" stroke-miterlimit="10" x1="412.244" y1="155.303" x2="412.315" y2="158.569"/>
<polyline fill="none" stroke="#1A171B" stroke-width="0.5" stroke-linecap="round" stroke-linejoin="round" stroke-miterlimit="10" points="
	414.464,122.122 419.242,122.036 419.73,121.95 "/>
<line fill="none" stroke="#1A171B" stroke-width="0.5" stroke-linecap="round" stroke-linejoin="round" stroke-miterlimit="10" x1="419.73" y1="121.95" x2="419.802" y2="120.927"/>
<polyline fill="none" stroke="#1A171B" stroke-width="0.5" stroke-linecap="round" stroke-linejoin="round" stroke-miterlimit="10" points="
	412.207,120.754 412.178,122.021 412.954,122.136 414.464,122.122 "/>
<polyline fill="none" stroke="#1A171B" stroke-width="0.5" stroke-linecap="round" stroke-linejoin="round" stroke-miterlimit="10" points="
	414.488,155.159 419.309,155.319 419.798,155.232 "/>
<line fill="none" stroke="#1A171B" stroke-width="0.5" stroke-linecap="round" stroke-linejoin="round" stroke-miterlimit="10" x1="419.798" y1="155.232" x2="419.769" y2="156.498"/>
<polyline fill="none" stroke="#1A171B" stroke-width="0.5" stroke-linecap="round" stroke-linejoin="round" stroke-miterlimit="10" points="
	412.216,156.568 412.244,155.303 412.978,155.173 414.488,155.159 "/>
<line fill="none" stroke="#1A171B" stroke-width="0.5" stroke-linecap="round" stroke-linejoin="round" stroke-miterlimit="10" x1="419.136" y1="158.627" x2="419.309" y2="155.319"/>
<line fill="none" stroke="#1A171B" stroke-width="0.5" stroke-linecap="round" stroke-linejoin="round" stroke-miterlimit="10" x1="419.242" y1="122.036" x2="419.113" y2="117.013"/>
<line fill="none" stroke="#1A171B" stroke-width="0.5" stroke-linecap="round" stroke-linejoin="round" stroke-miterlimit="10" x1="412.978" y1="155.173" x2="412.806" y2="158.482"/>
<line fill="none" stroke="#1A171B" stroke-width="0.5" stroke-linecap="round" stroke-linejoin="round" stroke-miterlimit="10" x1="412.825" y1="117.115" x2="412.954" y2="122.136"/>
<line fill="none" stroke="#1A171B" stroke-width="0.5" stroke-linecap="round" stroke-linejoin="round" stroke-miterlimit="10" x1="412.292" y1="116.954" x2="412.825" y2="117.115"/>
<line fill="none" stroke="#1A171B" stroke-width="0.5" stroke-linecap="round" stroke-linejoin="round" stroke-miterlimit="10" x1="412.795" y1="114.091" x2="412.263" y2="113.932"/>
<line fill="none" stroke="#1A171B" stroke-width="0.5" stroke-linecap="round" stroke-linejoin="round" stroke-miterlimit="10" x1="419.861" y1="114.105" x2="419.083" y2="113.992"/>
<line fill="none" stroke="#1A171B" stroke-width="0.5" stroke-linecap="round" stroke-linejoin="round" stroke-miterlimit="10" x1="419.113" y1="117.013" x2="419.89" y2="117.129"/>
<polygon fill="none" stroke="#1A171B" stroke-width="0.5" stroke-linecap="round" stroke-linejoin="round" stroke-miterlimit="10" points="
	488.584,117.628 488.659,99.454 485.882,99.438 486.053,117.569 "/>
<path fill="none" stroke="#1A171B" stroke-width="0.5" stroke-linecap="round" stroke-linejoin="round" stroke-miterlimit="10" d="
	M432.914,99.446l228.536,0.062l-0.13-0.733l0.145-6.332l-0.129-0.733 M661.335,91.708l-228.492,0.184 M661.463,92.442
	l-228.776-0.018 M432.785,98.713l228.534,0.062"/>
<path fill="none" stroke="#1A171B" stroke-width="0.5" stroke-linecap="round" stroke-linejoin="round" stroke-miterlimit="10" d="
	M712.941,238.485l-0.012-22.947 M714.453,238.474l-0.012-22.953"/>
<line fill="none" stroke="#1A171B" stroke-width="0.5" stroke-linecap="round" stroke-linejoin="round" stroke-miterlimit="10" x1="706.899" y1="238.543" x2="706.888" y2="215.593"/>
<path fill="none" stroke="#1A171B" stroke-width="0.5" stroke-linecap="round" stroke-linejoin="round" stroke-miterlimit="10" d="
	M698.556,215.548l0.014,22.95 M714.942,238.386l-0.011-22.95"/>
<path fill="none" stroke="#1A171B" stroke-width="0.5" stroke-linecap="round" stroke-linejoin="round" stroke-miterlimit="10" d="
	M657.159,99.507l-0.026,9.841 M657.075,81.863l-0.028,9.845 M671.259,109.38l0.191-27.528 M664.239,92.455l0.146-10.619
	 M658.097,81.937l-0.146,10.62 M664.44,109.32l-0.103-10.574l-0.1-6.29 M657.03,98.77l1.021,0.073l0.101,10.576 M657.951,92.556
	l-0.775-0.117 M670.238,109.308l0.19-27.528"/>
<polygon fill="none" stroke="#1A171B" stroke-width="0.5" stroke-linecap="round" stroke-linejoin="round" stroke-miterlimit="10" points="
	671.259,109.38 706.341,109.5 706.212,108.765 671.375,108.601 "/>
<polygon fill="none" stroke="#1A171B" stroke-width="0.5" stroke-linecap="round" stroke-linejoin="round" stroke-miterlimit="10" points="
	671.293,82.384 706.13,82.547 706.244,81.771 671.45,81.852 "/>
<path fill="none" stroke="#1A171B" stroke-width="0.5" stroke-linecap="round" stroke-linejoin="round" stroke-miterlimit="10" d="
	M429.171,113.978l-9.31,0.127 M419.732,117.661l13.107-0.042 M419.89,117.129l12.333-0.157"/>
<path fill="none" stroke="#1A171B" stroke-width="0.5" stroke-linecap="round" stroke-linejoin="round" stroke-miterlimit="10" d="
	M432.84,117.619l0.073-18.174 M432.222,116.972l-0.171-18.13 M432.051,98.842l0.734-0.129"/>
<polygon fill="none" stroke="#1A171B" stroke-width="0.5" stroke-linecap="round" stroke-linejoin="round" stroke-miterlimit="10" points="
	433.94,178.213 433.798,167.392 445.352,167.122 446.373,167.192 447.106,167.064 448.172,167.38 448.95,167.495 449.971,167.569 
	450.79,167.928 451.61,168.287 452.433,168.647 453.009,169.049 453.87,169.654 454.201,170.101 454.821,170.747 455.15,171.194 
	455.237,171.684 455.368,172.418 455.452,172.908 455.295,173.438 455.38,173.928 454.978,174.505 454.818,175.037 454.417,175.613 
	453.769,176.23 453.077,176.605 452.387,176.978 451.696,177.353 450.76,177.771 449.784,177.942 449.091,178.317 448.113,178.488 
	447.134,178.66 446.357,178.546 445.336,178.474 "/>
<path fill="none" stroke="#1A171B" stroke-width="0.5" stroke-linecap="round" stroke-linejoin="round" stroke-miterlimit="10" d="
	M438.79,172.819l-0.044-0.244 M440.501,176.805l-0.043-0.246 M444.864,167.207l-0.045-0.245 M440.632,168.961l-0.042-0.244"/>
<polyline fill="none" stroke="#1A171B" stroke-width="0.5" stroke-linecap="round" stroke-linejoin="round" stroke-miterlimit="10" points="
	438.79,172.819 439.178,170.732 440.632,168.961 442.661,167.596 444.864,167.207 "/>
<polyline fill="none" stroke="#1A171B" stroke-width="0.5" stroke-linecap="round" stroke-linejoin="round" stroke-miterlimit="10" points="
	444.846,178.562 442.472,177.971 440.501,176.805 439.177,175.02 438.79,172.819 "/>
<polygon fill="none" stroke="#1A171B" stroke-width="0.5" stroke-linecap="round" stroke-linejoin="round" stroke-miterlimit="10" points="
	434.5,185.682 434.701,185.394 434.948,185.352 448.544,185.223 448.833,185.424 449.164,185.87 449.146,201.512 448.944,201.799 
	448.454,201.885 434.858,202.013 434.569,201.811 434.484,201.323 "/>
<path fill="none" stroke="#1A171B" stroke-width="0.5" stroke-linecap="round" stroke-linejoin="round" stroke-miterlimit="10" d="
	M447.493,186.418l-8.863-0.204 M448.196,200.416l-0.126-13.596 M438.686,200.833l8.864,0.202 M438.226,186.791l-0.115,13.641"/>
<polyline fill="none" stroke="#1A171B" stroke-width="0.5" stroke-linecap="round" stroke-linejoin="round" stroke-miterlimit="10" points="
	438.686,200.833 438.152,200.676 438.109,200.432 "/>
<polyline fill="none" stroke="#1A171B" stroke-width="0.5" stroke-linecap="round" stroke-linejoin="round" stroke-miterlimit="10" points="
	448.196,200.416 447.995,200.705 447.55,201.035 "/>
<polyline fill="none" stroke="#1A171B" stroke-width="0.5" stroke-linecap="round" stroke-linejoin="round" stroke-miterlimit="10" points="
	447.493,186.418 447.982,186.33 448.069,186.821 "/>
<polyline fill="none" stroke="#1A171B" stroke-width="0.5" stroke-linecap="round" stroke-linejoin="round" stroke-miterlimit="10" points="
	438.226,186.791 438.185,186.546 438.63,186.214 "/>
<polyline fill="none" stroke="#1A171B" stroke-width="0.5" stroke-linecap="round" stroke-linejoin="round" stroke-miterlimit="10" points="
	436.527,192.892 437.795,192.921 438.082,193.123 "/>
<line fill="none" stroke="#1A171B" stroke-width="0.5" stroke-linecap="round" stroke-linejoin="round" stroke-miterlimit="10" x1="438.082" y1="193.123" x2="438.038" y2="192.878"/>
<polyline fill="none" stroke="#1A171B" stroke-width="0.5" stroke-linecap="round" stroke-linejoin="round" stroke-miterlimit="10" points="
	438.082,193.123 439.881,193.309 440.125,193.264 440.168,193.509 440.211,193.754 440.011,194.041 "/>
<line fill="none" stroke="#1A171B" stroke-width="0.5" stroke-linecap="round" stroke-linejoin="round" stroke-miterlimit="10" x1="440.011" y1="194.041" x2="439.967" y2="193.799"/>
<polyline fill="none" stroke="#1A171B" stroke-width="0.5" stroke-linecap="round" stroke-linejoin="round" stroke-miterlimit="10" points="
	440.011,194.041 438.254,194.1 437.812,194.43 "/>
<line fill="none" stroke="#1A171B" stroke-width="0.5" stroke-linecap="round" stroke-linejoin="round" stroke-miterlimit="10" x1="437.812" y1="194.43" x2="437.767" y2="194.185"/>
<polyline fill="none" stroke="#1A171B" stroke-width="0.5" stroke-linecap="round" stroke-linejoin="round" stroke-miterlimit="10" points="
	437.812,194.43 436.542,194.401 435.765,194.286 435.636,193.552 435.793,193.022 436.527,192.892 "/>
<line fill="none" stroke="#1A171B" stroke-width="0.5" stroke-linecap="round" stroke-linejoin="round" stroke-miterlimit="10" x1="436.527" y1="192.892" x2="436.485" y2="192.647"/>
<line fill="none" stroke="#1A171B" stroke-width="0.5" stroke-linecap="round" stroke-linejoin="round" stroke-miterlimit="10" x1="437.233" y1="194.028" x2="437.767" y2="194.185"/>
<polyline fill="none" stroke="#1A171B" stroke-width="0.5" stroke-linecap="round" stroke-linejoin="round" stroke-miterlimit="10" points="
	437.837,193.163 437.348,193.251 437.233,194.028 "/>
<polyline fill="none" stroke="#1A171B" stroke-width="0.5" stroke-linecap="round" stroke-linejoin="round" stroke-miterlimit="10" points="
	437.837,193.163 438.125,193.365 438.167,193.611 437.967,193.898 437.767,194.185 "/>
<polyline fill="none" stroke="#1A171B" stroke-width="0.5" stroke-linecap="round" stroke-linejoin="round" stroke-miterlimit="10" points="
	438.082,193.123 438.369,193.323 438.456,193.809 438.254,194.1 "/>
<polygon fill="none" stroke="#1A171B" stroke-width="0.5" stroke-linecap="round" stroke-linejoin="round" stroke-miterlimit="10" points="
	434.338,207.653 484.285,207.678 484.396,232.627 434.451,232.605 "/>
<polygon fill="none" stroke="#1A171B" stroke-width="0.5" stroke-linecap="round" stroke-linejoin="round" stroke-miterlimit="10" points="
	440.148,230.592 439.66,230.678 438.84,230.319 438.264,229.914 437.69,229.512 437.069,228.865 436.695,228.175 436.322,227.484 
	436.149,226.504 436.021,225.77 436.078,214.663 436.194,213.886 436.309,213.109 436.669,212.286 437.028,211.469 437.676,210.849 
	438.122,210.517 438.813,210.144 439.504,209.771 440.237,209.641 473.809,209.776 475.361,210.004 476.917,210.236 
	478.312,210.997 479.55,212.293 480.497,213.387 481.536,214.971 482.082,216.64 482.383,218.351 482.685,220.065 482.541,222.107 
	482.065,223.703 481.347,225.345 480.626,226.985 479.576,228.18 478.237,229.171 476.856,229.92 475.432,230.424 473.964,230.682 
	"/>
<polyline fill="none" stroke="#1A171B" stroke-width="0.5" stroke-linecap="round" stroke-linejoin="round" stroke-miterlimit="10" points="
	435.387,219.323 436.697,219.598 436.941,219.555 "/>
<line fill="none" stroke="#1A171B" stroke-width="0.5" stroke-linecap="round" stroke-linejoin="round" stroke-miterlimit="10" x1="436.941" y1="219.555" x2="436.898" y2="219.31"/>
<polyline fill="none" stroke="#1A171B" stroke-width="0.5" stroke-linecap="round" stroke-linejoin="round" stroke-miterlimit="10" points="
	436.941,219.555 438.74,219.741 439.027,219.944 439.071,220.189 438.869,220.476 438.624,220.519 "/>
<line fill="none" stroke="#1A171B" stroke-width="0.5" stroke-linecap="round" stroke-linejoin="round" stroke-miterlimit="10" x1="438.624" y1="220.519" x2="438.581" y2="220.274"/>
<polyline fill="none" stroke="#1A171B" stroke-width="0.5" stroke-linecap="round" stroke-linejoin="round" stroke-miterlimit="10" points="
	438.624,220.519 436.912,220.822 436.668,220.865 "/>
<line fill="none" stroke="#1A171B" stroke-width="0.5" stroke-linecap="round" stroke-linejoin="round" stroke-miterlimit="10" x1="436.668" y1="220.865" x2="436.624" y2="220.619"/>
<polyline fill="none" stroke="#1A171B" stroke-width="0.5" stroke-linecap="round" stroke-linejoin="round" stroke-miterlimit="10" points="
	436.668,220.865 435.2,221.121 434.624,220.721 434.538,220.231 434.697,219.698 435.387,219.323 "/>
<line fill="none" stroke="#1A171B" stroke-width="0.5" stroke-linecap="round" stroke-linejoin="round" stroke-miterlimit="10" x1="435.387" y1="219.323" x2="435.344" y2="219.078"/>
<line fill="none" stroke="#1A171B" stroke-width="0.5" stroke-linecap="round" stroke-linejoin="round" stroke-miterlimit="10" x1="436.136" y1="220.705" x2="436.624" y2="220.619"/>
<polyline fill="none" stroke="#1A171B" stroke-width="0.5" stroke-linecap="round" stroke-linejoin="round" stroke-miterlimit="10" points="
	436.74,219.842 436.208,219.684 436.136,220.705 "/>
<polyline fill="none" stroke="#1A171B" stroke-width="0.5" stroke-linecap="round" stroke-linejoin="round" stroke-miterlimit="10" points="
	436.74,219.842 436.986,219.8 437.071,220.289 436.869,220.574 436.624,220.619 "/>
<polyline fill="none" stroke="#1A171B" stroke-width="0.5" stroke-linecap="round" stroke-linejoin="round" stroke-miterlimit="10" points="
	436.941,219.555 437.272,220.002 437.357,220.491 436.912,220.822 "/>
<polygon fill="none" stroke="#1A171B" stroke-width="0.5" stroke-linecap="round" stroke-linejoin="round" stroke-miterlimit="10" points="
	508.672,234.4 508.635,178.411 488.704,178.395 488.74,234.381 "/>
<rect x="488.713" y="158.472" transform="matrix(9.309807e-004 -1 1 9.309807e-004 329.7768 666.9585)" fill="none" stroke="#1A171B" stroke-width="0.5" stroke-linecap="round" stroke-linejoin="round" stroke-miterlimit="10" width="19.93" height="19.93"/>
<polygon fill="none" stroke="#1A171B" stroke-width="0.5" stroke-linecap="round" stroke-linejoin="round" stroke-miterlimit="10" points="
	490.229,188.467 490.329,207.616 506.99,207.706 506.896,188.554 "/>
<polygon fill="none" stroke="#1A171B" stroke-width="0.5" stroke-linecap="round" stroke-linejoin="round" stroke-miterlimit="10" points="
	490.815,211.822 491.029,230.197 507.649,230.039 507.479,211.909 "/>
<path fill="none" stroke="#1A171B" stroke-width="0.5" stroke-linecap="round" stroke-linejoin="round" stroke-miterlimit="10" d="
	M496.189,170.768l4.732-4.619 M495.269,168.406l6.575,0.104 M496.146,166.235l4.864,4.692 M498.507,165.317l0.144,6.529"/>
<polygon fill="none" stroke="#1A171B" stroke-width="0.5" stroke-linecap="round" stroke-linejoin="round" stroke-miterlimit="10" points="
	492.63,213.518 492.482,228.427 504.369,228.6 504.229,213.492 "/>
<polygon fill="none" stroke="#1A171B" stroke-width="0.5" stroke-linecap="round" stroke-linejoin="round" stroke-miterlimit="10" points="
	503.195,190.468 501.971,190.684 501.122,191.591 500.85,192.9 501.065,194.122 501.971,194.971 503.28,195.245 504.46,194.785 
	505.309,193.88 505.625,192.815 505.165,191.634 504.259,190.784 "/>
<polygon fill="none" stroke="#1A171B" stroke-width="0.5" stroke-linecap="round" stroke-linejoin="round" stroke-miterlimit="10" points="
	495.353,190.338 493.438,190.928 492.144,192.166 491.71,194.008 492.258,195.677 493.494,196.97 495.337,197.403 497.006,196.858 
	498.301,195.62 498.777,194.022 498.187,192.108 496.95,190.814 "/>
<polygon fill="none" stroke="#1A171B" stroke-width="0.5" stroke-linecap="round" stroke-linejoin="round" stroke-miterlimit="10" points="
	502.588,199.908 500.92,200.454 499.826,201.405 499.595,202.958 499.853,204.425 501.048,205.477 502.4,205.995 504.069,205.448 
	505.164,204.499 505.396,202.945 505.136,201.476 503.942,200.425 "/>
<polygon fill="none" stroke="#1A171B" stroke-width="0.5" stroke-linecap="round" stroke-linejoin="round" stroke-miterlimit="10" points="
	494.761,201.289 493.537,201.503 492.688,202.41 492.371,203.475 492.587,204.699 493.536,205.793 494.847,206.065 496.025,205.605 
	496.875,204.699 497.192,203.635 496.977,202.41 496.071,201.562 "/>
<line fill="none" stroke="#1A171B" stroke-width="0.5" stroke-linecap="round" stroke-linejoin="round" stroke-miterlimit="10" x1="708.902" y1="204.14" x2="709.023" y2="169.056"/>
<line fill="none" stroke="#1A171B" stroke-width="0.5" stroke-linecap="round" stroke-linejoin="round" stroke-miterlimit="10" x1="671.259" y1="109.38" x2="657.131" y2="109.348"/>
<line fill="none" stroke="#1A171B" stroke-width="0.5" stroke-linecap="round" stroke-linejoin="round" stroke-miterlimit="10" x1="709.503" y1="133.156" x2="709.015" y2="133.241"/>
<line fill="none" stroke="#1A171B" stroke-width="0.5" stroke-linecap="round" stroke-linejoin="round" stroke-miterlimit="10" x1="708.824" y1="156.48" x2="708.916" y2="109.802"/>
<line fill="none" stroke="#1A171B" stroke-width="0.5" stroke-linecap="round" stroke-linejoin="round" stroke-miterlimit="10" x1="709.644" y1="161.127" x2="709.607" y2="109.427"/>
<line fill="none" stroke="#1A171B" stroke-width="0.5" stroke-linecap="round" stroke-linejoin="round" stroke-miterlimit="10" x1="486.053" y1="117.569" x2="419.732" y2="117.661"/>
<line fill="none" stroke="#1A171B" stroke-width="0.5" stroke-linecap="round" stroke-linejoin="round" stroke-miterlimit="10" x1="488.743" y1="117.095" x2="488.723" y2="158.466"/>
<line fill="none" stroke="#1A171B" stroke-width="0.5" stroke-linecap="round" stroke-linejoin="round" stroke-miterlimit="10" x1="731.18" y1="105.876" x2="731.166" y2="87.214"/>
<line fill="none" stroke="#1A171B" stroke-width="0.5" stroke-linecap="round" stroke-linejoin="round" stroke-miterlimit="10" x1="731.244" y1="143.446" x2="731.232" y2="124.784"/>
<line fill="none" stroke="#1A171B" stroke-width="0.5" stroke-linecap="round" stroke-linejoin="round" stroke-miterlimit="10" x1="731.067" y1="181.062" x2="731.257" y2="162.109"/>
<line fill="none" stroke="#1A171B" stroke-width="0.5" stroke-linecap="round" stroke-linejoin="round" stroke-miterlimit="10" x1="731.104" y1="215.609" x2="731.078" y2="199.724"/>
<path fill="none" stroke="#1A171B" stroke-width="0.5" stroke-linecap="round" stroke-linejoin="round" stroke-miterlimit="10" d="
	M707.498,167.56l2.778,0.017 M706.291,164.999l-0.203-4 M710.276,167.575l-0.181,41.9 M707.498,167.56l-0.049,38.349
	 M709.681,204.254l-0.123-35.039 M714.947,208.369l-0.078-51.945 M699.577,215.619l0.077-43.903"/>
<polygon fill="none" stroke="#1A171B" stroke-width="0.5" stroke-linecap="round" stroke-linejoin="round" stroke-miterlimit="10" points="
	669.727,163.627 669.784,161.094 668.029,161.152 667.972,163.683 "/>
<line fill="none" stroke="#1A171B" stroke-width="0.5" stroke-linecap="round" stroke-linejoin="round" stroke-miterlimit="10" x1="667.972" y1="163.683" x2="703.787" y2="163.674"/>
<polygon fill="none" stroke="#1A171B" stroke-width="0.5" stroke-linecap="round" stroke-linejoin="round" stroke-miterlimit="10" points="
	664.046,141.422 666.578,141.481 666.637,143.235 664.104,143.18 "/>
<path fill="none" stroke="#1A171B" stroke-width="0.5" stroke-linecap="round" stroke-linejoin="round" stroke-miterlimit="10" d="
	M666.217,159.452l-0.112-16.375 M665.439,159.337l-0.069-16.13"/>
<polyline fill="none" stroke="#1A171B" stroke-width="0.5" stroke-linecap="round" stroke-linejoin="round" stroke-miterlimit="10" points="
	666.637,143.235 666.705,159.366 663.929,159.353 "/>
<line fill="none" stroke="#1A171B" stroke-width="0.5" stroke-linecap="round" stroke-linejoin="round" stroke-miterlimit="10" x1="666.763" y1="161.12" x2="666.705" y2="159.366"/>
<polyline fill="none" stroke="#1A171B" stroke-width="0.5" stroke-linecap="round" stroke-linejoin="round" stroke-miterlimit="10" points="
	668.029,161.152 663.985,161.107 663.929,159.353 "/>
<polygon fill="none" stroke="#1A171B" stroke-width="0.5" stroke-linecap="round" stroke-linejoin="round" stroke-miterlimit="10" points="
	663.975,138.156 666.75,138.171 666.766,139.683 664.031,139.913 "/>
<polygon fill="none" stroke="#1A171B" stroke-width="0.5" stroke-linecap="round" stroke-linejoin="round" stroke-miterlimit="10" points="
	663.949,109.406 666.727,109.42 666.741,110.933 664.007,111.162 "/>
<polygon fill="none" stroke="#1A171B" stroke-width="0.5" stroke-linecap="round" stroke-linejoin="round" stroke-miterlimit="10" points="
	664.031,139.913 667.789,139.754 667.612,143.064 664.104,143.18 "/>
<polyline fill="none" stroke="#1A171B" stroke-width="0.5" stroke-linecap="round" stroke-linejoin="round" stroke-miterlimit="10" points="
	663.942,165.15 667.942,164.95 668.029,161.152 "/>
<path fill="none" stroke="#1A171B" stroke-width="0.5" stroke-linecap="round" stroke-linejoin="round" stroke-miterlimit="10" d="
	M699.655,171.718l-42.635-0.05 M671.259,109.38l-0.008,47.167 M651.212,135.868l12.881-24.217 M657.021,171.668l0.112-62.32
	 M664.037,109.895l-0.006,30.019 M706.291,164.999l3.8,0.086 M663.942,165.15l0.043-4.043 M663.949,109.406l4.045,0.044"/>
<polyline fill="none" stroke="#1A171B" stroke-width="0.5" stroke-linecap="round" stroke-linejoin="round" stroke-miterlimit="10" points="
	706.291,164.999 706.234,167.531 710.276,167.575 710.091,165.085 "/>
<path fill="none" stroke="#1A171B" stroke-width="0.5" stroke-linecap="round" stroke-linejoin="round" stroke-miterlimit="10" d="
	M670.807,161.165l-1.555-0.229L670.807,161.165z"/>
<path fill="none" stroke="#1A171B" stroke-width="0.5" stroke-linecap="round" stroke-linejoin="round" stroke-miterlimit="10" d="
	M663.963,119.495l0.061-2.533 M666.709,137.926l0.057,1.755 M664.118,140.403l-0.188-2.489 M666.75,138.171l-0.01-27.24
	 M664.031,148.49l-0.113-24.951 M665.976,138.056l0.032-26.995 M665.485,138.142l0.032-26.995 M664.086,163.109l0.06-2.533
	 M703.686,161.673l-34.059-0.047 M703.815,162.406l-34.06-0.047"/>
<polyline fill="none" stroke="#1A171B" stroke-width="0.5" stroke-linecap="round" stroke-linejoin="round" stroke-miterlimit="10" points="
	710.334,165.042 710.134,161.042 706.091,160.999 "/>
<path fill="none" stroke="#1A171B" stroke-width="0.5" stroke-linecap="round" stroke-linejoin="round" stroke-miterlimit="10" d="
	M706.5,108.966l3.309,0.173 M671.254,156.547l35.039-0.125 M669.784,161.094l34.061,0.047 M663.949,109.406l-0.007,55.743
	 M710.334,165.042l-4.043-0.043"/>
<polyline fill="none" stroke="#1A171B" stroke-width="0.5" stroke-linecap="round" stroke-linejoin="round" stroke-miterlimit="10" points="
	706.575,82.219 709.842,82.143 709.809,109.139 "/>
<polyline fill="none" stroke="#1A171B" stroke-width="0.5" stroke-linecap="round" stroke-linejoin="round" stroke-miterlimit="10" points="
	706.341,109.5 710.097,109.343 709.809,109.139 "/>
<polyline fill="none" stroke="#1A171B" stroke-width="0.5" stroke-linecap="round" stroke-linejoin="round" stroke-miterlimit="10" points="
	707.147,108.348 709.19,108.493 709.194,82.763 "/>
<path fill="none" stroke="#1A171B" stroke-width="0.5" stroke-linecap="round" stroke-linejoin="round" stroke-miterlimit="10" d="
	M709.194,82.763l0.647-0.62 M709.19,108.493l0.617,0.646 M710.097,109.343l0.19-27.529 M706.647,85.482l-0.072-3.264
	 M709.194,82.763l-1.999,0.1 M710.287,81.813l-4.043-0.042"/>
<polyline fill="none" stroke="#1A171B" stroke-width="0.5" stroke-linecap="round" stroke-linejoin="round" stroke-miterlimit="10" points="
	706.185,105.744 707.204,105.815 707.147,108.348 706.5,108.966 706.428,105.7 "/>
<polyline fill="none" stroke="#1A171B" stroke-width="0.5" stroke-linecap="round" stroke-linejoin="round" stroke-miterlimit="10" points="
	707.135,85.397 707.194,82.863 706.575,82.219 "/>
<path fill="none" stroke="#1A171B" stroke-width="0.5" stroke-linecap="round" stroke-linejoin="round" stroke-miterlimit="10" d="
	M698.556,215.548l16.377-0.112 M706.185,105.744l0.157,3.755 M706.156,85.57l0.088-3.799"/>
<polygon fill="none" stroke="#1A171B" stroke-width="0.5" stroke-linecap="round" stroke-linejoin="round" stroke-miterlimit="10" points="
	706.234,167.531 710.276,167.575 710.091,165.085 706.291,164.999 "/>
<polygon fill="none" stroke="#1A171B" stroke-width="0.5" stroke-linecap="round" stroke-linejoin="round" stroke-miterlimit="10" points="
	706.255,213.434 710.299,213.477 710.111,210.989 706.11,211.188 "/>
<polygon fill="none" stroke="#1A171B" stroke-width="0.5" stroke-linecap="round" stroke-linejoin="round" stroke-miterlimit="10" points="
	707.578,210.93 710.111,210.989 710.097,209.477 707.565,209.418 "/>
<polygon fill="none" stroke="#1A171B" stroke-width="0.5" stroke-linecap="round" stroke-linejoin="round" stroke-miterlimit="10" points="
	707.515,169.072 710.289,169.087 710.276,167.575 707.498,167.56 "/>
<line fill="none" stroke="#1A171B" stroke-width="0.5" stroke-linecap="round" stroke-linejoin="round" stroke-miterlimit="10" x1="671.45" y1="81.852" x2="657.075" y2="81.863"/>
<line fill="none" stroke="#1A171B" stroke-width="0.5" stroke-linecap="round" stroke-linejoin="round" stroke-miterlimit="10" x1="709.555" y1="81.944" x2="709.553" y2="81.945"/>
<line fill="none" stroke="#1A171B" stroke-width="0.5" stroke-linecap="round" stroke-linejoin="round" stroke-miterlimit="10" x1="710.334" y1="165.042" x2="706.291" y2="164.999"/>
<line fill="none" stroke="#1A171B" stroke-width="0.5" stroke-linecap="round" stroke-linejoin="round" stroke-miterlimit="10" x1="708.865" y1="161.013" x2="708.832" y2="109.312"/>
<line fill="none" stroke="#1A171B" stroke-width="0.5" stroke-linecap="round" stroke-linejoin="round" stroke-miterlimit="10" x1="709.565" y1="209.318" x2="709.557" y2="169.215"/>
<line fill="none" stroke="#1A171B" stroke-width="0.5" stroke-linecap="round" stroke-linejoin="round" stroke-miterlimit="10" x1="708.831" y1="209.448" x2="709.023" y2="169.056"/>
<line fill="none" stroke="#1A171B" stroke-width="0.5" stroke-linecap="round" stroke-linejoin="round" stroke-miterlimit="10" x1="707.515" y1="169.072" x2="707.565" y2="209.418"/>
<line fill="none" stroke="#1A171B" stroke-width="0.5" stroke-linecap="round" stroke-linejoin="round" stroke-miterlimit="10" x1="714.933" y1="215.436" x2="714.868" y2="156.424"/>
<line fill="none" stroke="#1A171B" stroke-width="0.5" stroke-linecap="round" stroke-linejoin="round" stroke-miterlimit="10" x1="664.142" y1="81.881" x2="667.939" y2="81.966"/>
<line fill="none" stroke="#1A171B" stroke-width="0.5" stroke-linecap="round" stroke-linejoin="round" stroke-miterlimit="10" x1="706.156" y1="85.57" x2="707.135" y2="85.397"/>
<line fill="none" stroke="#1A171B" stroke-width="0.5" stroke-linecap="round" stroke-linejoin="round" stroke-miterlimit="10" x1="710.288" y1="81.813" x2="710.134" y2="161.042"/>
<line fill="none" stroke="#1A171B" stroke-width="0.5" stroke-linecap="round" stroke-linejoin="round" stroke-miterlimit="10" x1="706.245" y1="81.771" x2="706.091" y2="160.999"/>
<line fill="none" stroke="#1A171B" stroke-width="0.5" stroke-linecap="round" stroke-linejoin="round" stroke-miterlimit="10" x1="714.868" y1="156.424" x2="714.933" y2="82.144"/>
<line fill="none" stroke="#1A171B" stroke-width="0.5" stroke-linecap="round" stroke-linejoin="round" stroke-miterlimit="10" x1="709.021" y1="81.786" x2="709.021" y2="81.786"/>
<polygon fill="none" stroke="#1A171B" stroke-width="0.5" stroke-linecap="round" stroke-linejoin="round" stroke-miterlimit="10" points="
	672.426,103.121 672.327,88.256 700.545,88.072 700.687,103.181 "/>
<polygon fill="none" stroke="#1A171B" stroke-width="0.5" stroke-linecap="round" stroke-linejoin="round" stroke-miterlimit="10" points="
	706.091,160.999 706.318,163.733 704.565,163.791 703.787,163.674 703.845,161.141 "/>
<polygon fill="none" stroke="#1A171B" stroke-width="0.5" stroke-linecap="round" stroke-linejoin="round" stroke-miterlimit="10" points="
	699.577,215.619 699.478,213.62 710.299,213.477 710.153,215.519 "/>
<polygon fill="none" stroke="#1A171B" stroke-width="0.5" stroke-linecap="round" stroke-linejoin="round" stroke-miterlimit="10" points="
	710.153,215.519 710.299,213.477 714.83,213.434 714.933,215.436 "/>
<polygon fill="none" stroke="#1A171B" stroke-width="0.5" stroke-linecap="round" stroke-linejoin="round" stroke-miterlimit="10" points="
	714.933,215.436 714.83,213.434 731.25,213.565 731.104,215.609 "/>
<polyline fill="none" stroke="#1A171B" stroke-width="0.5" stroke-linecap="round" stroke-linejoin="round" stroke-miterlimit="10" points="
	651.212,135.868 657.557,137.524 664.219,138.113 "/>
<rect x="698.554" y="215.45" fill="#1A171B" stroke="#1A171B" stroke-width="0.5" stroke-linecap="round" stroke-linejoin="round" stroke-miterlimit="10" width="16.241" height="26.512"/>
<rect x="699.499" y="213.51" fill="#1A171B" stroke="#1A171B" stroke-width="0.5" stroke-linecap="round" stroke-linejoin="round" stroke-miterlimit="10" width="15.417" height="28.65"/>
<rect x="429.072" y="235.219" fill="#1A171B" stroke="#1A171B" stroke-width="0.5" stroke-linecap="round" stroke-linejoin="round" stroke-miterlimit="10" width="269.587" height="6.819"/>
<rect x="486.017" y="158.707" fill="#1A171B" stroke="#1A171B" stroke-width="0.5" stroke-linecap="round" stroke-linejoin="round" stroke-miterlimit="10" width="2.549" height="77.036"/>
<rect x="482.709" y="158.706" fill="#1A171B" stroke="#1A171B" stroke-width="0.5" stroke-linecap="round" stroke-linejoin="round" stroke-miterlimit="10" width="3.31" height="2.545"/>
<rect x="432.819" y="158.697" fill="#1A171B" stroke="#1A171B" stroke-width="0.5" stroke-linecap="round" stroke-linejoin="round" stroke-miterlimit="10" width="23.182" height="2.726"/>
<rect x="429.191" y="158.697" fill="#1A171B" stroke="#1A171B" stroke-width="0.5" stroke-linecap="round" stroke-linejoin="round" stroke-miterlimit="10" width="3.628" height="77.049"/>
<rect x="419.955" y="158.697" fill="#1A171B" stroke="#1A171B" stroke-width="0.5" stroke-linecap="round" stroke-linejoin="round" stroke-miterlimit="10" width="9.134" height="3.755"/>
<rect x="412.287" y="155.256" fill="#1A171B" stroke="#1A171B" stroke-width="0.5" stroke-linecap="round" stroke-linejoin="round" stroke-miterlimit="10" width="7.668" height="7.196"/>
<rect x="657.104" y="81.78" fill="#1A171B" stroke="#1A171B" stroke-width="0.5" stroke-linecap="round" stroke-linejoin="round" stroke-miterlimit="10" width="14.226" height="27.627"/>
<rect x="432.874" y="91.807" fill="#1A171B" stroke="#1A171B" stroke-width="0.5" stroke-linecap="round" stroke-linejoin="round" stroke-miterlimit="10" width="224.575" height="7.615"/>
<rect x="429.306" y="91.857" fill="#1A171B" stroke="#1A171B" stroke-width="0.5" stroke-linecap="round" stroke-linejoin="round" stroke-miterlimit="10" width="3.605" height="26.025"/>
<rect x="419.204" y="114.139" fill="#1A171B" stroke="#1A171B" stroke-width="0.5" stroke-linecap="round" stroke-linejoin="round" stroke-miterlimit="10" width="9.965" height="3.64"/>
<rect x="412.249" y="114.087" fill="#1A171B" stroke="#1A171B" stroke-width="0.5" stroke-linecap="round" stroke-linejoin="round" stroke-miterlimit="10" width="7.584" height="8.146"/>
<rect x="486.125" y="95.394" fill="#1A171B" stroke="#1A171B" stroke-width="0.5" stroke-linecap="round" stroke-linejoin="round" stroke-miterlimit="10" width="2.566" height="22.477"/>
<text transform="matrix(1 0 0 1 671.2432 139.3)" fill="#1A171B" font-family="'ArialMT'" font-size="18.63">1,47</text>
<text transform="matrix(1 0 0 1 620.8447 207.9573)" fill="#1A171B" font-family="'ArialMT'" font-size="18.63">26,51</text>
<text transform="matrix(1 0 0 1 443.4756 193.4202)" fill="#1A171B" font-family="'ArialMT'" font-size="18.63">3,56</text>
</svg>
